<?xml version="1.0" encoding="utf-8"?>
<!-- Generator: Adobe Illustrator 17.1.0, SVG Export Plug-In . SVG Version: 6.00 Build 0)  -->
<!DOCTYPE svg PUBLIC "-//W3C//DTD SVG 1.1//EN" "http://www.w3.org/Graphics/SVG/1.1/DTD/svg11.dtd">
<svg version="1.1" id="Calque_1" xmlns="http://www.w3.org/2000/svg" xmlns:xlink="http://www.w3.org/1999/xlink" x="0px" y="0px"
   viewBox="0 0 500 500" enable-background="new 0 0 500 500" xml:space="preserve">
<g>
  <path fill="#D23333" d="M138.9,302.5c-20.9,0-37.8,16.9-37.8,37.8s16.9,37.8,37.8,37.8s37.8-16.9,37.8-37.8
    C176.7,319.4,159.8,302.5,138.9,302.5z M138.9,360.6c-11.3,0-20.6-9.3-20.6-20.6c0-11.3,9.3-20.6,20.6-20.6
    c11.3,0,20.6,9.3,20.6,20.6C159.5,351.6,150.5,360.6,138.9,360.6z"/>
  <circle fill="#D23333" cx="138.9" cy="340.3" r="3.6"/>
  <path fill="#D23333" d="M358.1,302.5c-20.9,0-37.8,16.9-37.8,37.8s16.9,37.8,37.8,37.8s37.8-16.9,37.8-37.8
    C395.9,319.4,379,302.5,358.1,302.5z M358.1,360.6c-11.3,0-20.6-9.3-20.6-20.6c0-11.3,9.3-20.6,20.6-20.6
    c11.3,0,20.6,9.3,20.6,20.6C378.7,351.6,369.4,360.6,358.1,360.6z"/>
  <circle fill="#D23333" cx="358.1" cy="340.3" r="3.6"/>
  <path fill="#D23333" d="M93.5,340.3c0-25.2,20.2-45.4,45.4-45.4s45.4,20.2,45.4,45.4h128.4c0-25.2,20.2-45.4,45.4-45.4
    s45.4,20.2,45.4,45.4l47.1-1c0,0,7-2.3,7-15.9c0-13.6-9.3-14.9-9.3-14.9l-21.9-0.3c0,0-0.7-13.9-20.9-34.2
    c-19.9-20.6-43.8-17.2-43.8-17.2l-312.1,1.3v61.7h0.7c0,0-5.3-2.7-5.6,9.9C44.4,342,50,340,50,340L93.5,340.3z"/>
  <rect x="186.3" y="316.8" fill="#D23333" width="127" height="2.7"/>
  <rect x="54" y="316.8" fill="#D23333" width="40.5" height="2.7"/>
  <path fill="#D23333" d="M451,245.2h-4l-1.7-21.6c0,0-13.3-42.1-42.5-72.3c-0.7-0.7,6.6,0,6-0.7c-30.5-30.5-119.1-24.9-157.5-26.2
    s-181.8,8.6-196,21.6c-6.3,5.6-5.3,13.9-5.3,13.9v86.6h319.1c0,0,17.9-2.7,43.1,17.6c18.9,15.3,23.5,38.5,23.5,38.5H447l-0.3-34.2
    l5,0.3C456.6,261.1,454.6,247.8,451,245.2z M154.5,224.6c0,1.7-1.3,3-3,3H88.2c-1.7,0-3-1.3-3-3v-62.7c0-1.7,1.3-3,3-3h63.3
    c1.7,0,3,1.3,3,3V224.6z M240.7,224.6c0,1.7-1.3,3-3,3h-63.3c-1.7,0-3-1.3-3-3v-62.7c0-1.7,1.3-3,3-3h63.3c1.7,0,3,1.3,3,3V224.6z
     M326.9,224.6c0,1.7-1.3,3-3,3h-63.3c-1.7,0-3-1.3-3-3v-62.7c0-1.7,1.3-3,3-3H324c1.7,0,3,1.3,3,3V224.6z M421.1,227.9h-77.9
    c-3.3,0-6-2.7-6-6v-57.4c0-3.3,2.7-6,6-6h36.5c22.2,0,47.1,43.8,47.1,55.1C426.8,224.6,424.1,227.9,421.1,227.9z"/>
</g>
</svg>
