<?xml version="1.0" encoding="UTF-8" standalone="no"?>
<svg
   xmlns:dc="http://purl.org/dc/elements/1.1/"
   xmlns:cc="http://creativecommons.org/ns#"
   xmlns:rdf="http://www.w3.org/1999/02/22-rdf-syntax-ns#"
   xmlns:svg="http://www.w3.org/2000/svg"
   xmlns="http://www.w3.org/2000/svg"
   xmlns:sodipodi="http://sodipodi.sourceforge.net/DTD/sodipodi-0.dtd"
   xmlns:inkscape="http://www.inkscape.org/namespaces/inkscape"
   version="1.1"
   x="0px"
   y="0px"
   width="50.4px"
   height="50.4px"
   viewBox="2.52 -5.04 50.4 68.04"
   enable-background="new 0 0 50.4 50.4"
   xml:space="preserve"
   id="svg2"
   inkscape:version="0.48.4 r9939"
   sodipodi:docname="noun_44998_cc.svg"><metadata
     id="metadata24"><rdf:RDF><cc:Work
         rdf:about=""><dc:format>image/svg+xml</dc:format><dc:type
           rdf:resource="http://purl.org/dc/dcmitype/StillImage" /></cc:Work></rdf:RDF></metadata><defs
     id="defs22" /><sodipodi:namedview
     pagecolor="#ffffff"
     bordercolor="#666666"
     borderopacity="1"
     objecttolerance="10"
     gridtolerance="10"
     guidetolerance="10"
     inkscape:pageopacity="0"
     inkscape:pageshadow="2"
     inkscape:window-width="640"
     inkscape:window-height="480"
     id="namedview20"
     showgrid="false"
     inkscape:zoom="4.6825395"
     inkscape:cx="25.200001"
     inkscape:cy="25.200001"
     inkscape:window-x="65"
     inkscape:window-y="24"
     inkscape:window-maximized="0"
     inkscape:current-layer="svg2" /><g
     id="Layer_1"><path
       d="M41.581,37.177c-0.847,0.721-2.191,1.522-4.097,1.522c-1.899,0-3.238-0.793-4.083-1.511   c-0.848,0.718-2.188,1.511-4.082,1.511c-1.891,0-3.228-0.788-4.072-1.505c-0.844,0.717-2.18,1.505-4.072,1.505   c-1.897,0-3.236-0.793-4.082-1.514c-0.849,0.721-2.188,1.514-4.082,1.514c-1.917,0-3.264-0.809-4.109-1.532   c-0.85,0.667-2.053,1.269-3.665,1.479L8.994,45.4H41.36l3.092-6.9C43.411,38.298,42.431,37.903,41.581,37.177z"
       id="path5" /><path
       d="M50.273,32.242c-0.291-0.799-0.866-1.204-1.714-1.204c-0.626,0-1.203,0.238-1.552,0.488   c-3.63-7.086-13.838-12.148-21.882-12.148c-7.567,0-17.946,5.075-21.599,12.176c-0.34-0.262-0.946-0.516-1.598-0.516   c-0.846,0-1.423,0.405-1.715,1.204c-0.289,0.791-0.191,1.541,0.291,2.229c0.816,1.171,2.555,1.896,4.225,1.748   c1.704-0.173,2.713-0.969,3.26-1.604l0.941-1.099l0.943,1.097c0.641,0.745,1.576,1.597,3.139,1.597c1.559,0,2.496-0.854,3.14-1.602   l0.943-1.094l0.941,1.096c0.642,0.745,1.578,1.6,3.139,1.6c1.557,0,2.49-0.852,3.13-1.595l0.942-1.093l0.943,1.093   c0.639,0.743,1.572,1.595,3.129,1.595c1.559,0,2.498-0.854,3.144-1.602l0.944-1.097l0.941,1.099c0.637,0.745,1.571,1.6,3.136,1.6   c1.562,0,2.5-0.854,3.142-1.6l0.906-1.013c0,0,1.498,2.475,4.066,2.603l0.371,0.032c0.1,0.006,0.178,0.006,0.259,0.006   c1.505,0,3.014-0.711,3.756-1.768C50.465,33.783,50.561,33.033,50.273,32.242z M19.719,25.617c-0.996,1.235-2.089,1.128-2.562,0.68   c-0.498-0.47-0.645-1.535,0.535-2.596c1.161-1.05,2.991-1.135,2.991-1.135S20.701,24.399,19.719,25.617z M25.096,27.983   c-0.693,0-1.62-0.713-1.486-2.399c0.132-1.662,1.486-3.065,1.486-3.065s1.354,1.403,1.486,3.065   C26.717,27.27,25.824,27.983,25.096,27.983z M32.757,26.297c-0.472,0.448-1.565,0.556-2.562-0.68   c-0.981-1.218-0.963-3.051-0.963-3.051s1.83,0.085,2.99,1.135C33.404,24.761,33.256,25.827,32.757,26.297z"
       id="path7" /></g><g
     id="Layer_2"><path
       d="M25.92,16.835c-0.045,0-0.09-0.006-0.135-0.016c-0.995-0.197-2.839-1.288-2.699-3.994c0.074-1.444,0.991-2.148,1.729-2.712   c0.651-0.5,1.019-0.812,1.035-1.395c0.046-1.819-1.374-2.774-1.435-2.818c-0.316-0.208-0.407-0.634-0.201-0.953   c0.209-0.315,0.629-0.41,0.951-0.208c0.086,0.059,2.132,1.4,2.066,4.015c-0.032,1.269-0.888,1.927-1.576,2.454   c-0.713,0.547-1.15,0.92-1.191,1.687c-0.108,2.132,1.421,2.531,1.597,2.572c0.369,0.081,0.608,0.445,0.53,0.817   C26.524,16.609,26.239,16.835,25.92,16.835L25.92,16.835z"
       id="path10" /><path
       d="M31.393,16.835c-0.04,0-0.083-0.006-0.124-0.011c-0.851-0.156-2.426-1.022-2.308-3.176   c0.067-1.173,0.883-1.751,1.477-2.172c0.54-0.378,0.762-0.566,0.769-0.89c0.035-1.247-1.041-1.917-1.086-1.943   c-0.324-0.197-0.43-0.621-0.236-0.947c0.195-0.326,0.621-0.435,0.943-0.24c0.074,0.043,1.817,1.098,1.761,3.168   c-0.029,1.047-0.763,1.565-1.352,1.981c-0.553,0.394-0.866,0.637-0.894,1.123c-0.083,1.49,1.122,1.727,1.174,1.738   c0.376,0.067,0.624,0.426,0.557,0.804C32.012,16.6,31.719,16.835,31.393,16.835L31.393,16.835z"
       id="path12" /><path
       d="M19.878,16.835c-0.04,0-0.082-0.006-0.124-0.011c-0.851-0.156-2.428-1.022-2.307-3.176   c0.066-1.173,0.881-1.751,1.476-2.172c0.54-0.378,0.76-0.566,0.769-0.89c0.034-1.247-1.042-1.917-1.086-1.943   c-0.325-0.197-0.43-0.621-0.235-0.947c0.193-0.326,0.613-0.435,0.94-0.24c0.076,0.043,1.819,1.098,1.762,3.168   c-0.029,1.047-0.764,1.565-1.354,1.983c-0.553,0.392-0.868,0.635-0.895,1.12c-0.078,1.406,0.973,1.694,1.185,1.738   c0.37,0.075,0.614,0.437,0.542,0.81C20.489,16.603,20.202,16.835,19.878,16.835L19.878,16.835z"
       id="path14" /></g></svg>