<svg xmlns="http://www.w3.org/2000/svg" xmlns:xlink="http://www.w3.org/1999/xlink" version="1.1" id="Your_Icon" x="0px" y="0px" width="100px" height="100px" viewBox="0 0 100 100" enable-background="new 0 0 100 100" xml:space="preserve">
<path fill-rule="evenodd" clip-rule="evenodd" d="M47.166,89.425c-5.35,0.135-10.814-0.205-16.216-1.335  c-1.11-0.232-1.849-0.687-1.963-1.99c-0.127-1.453-0.261-2.899-0.229-4.357c0.011-0.529-0.146-0.912-0.668-1.132  c-0.894-0.375-1.25-1.123-1.181-2.033c0.156-2.036,0.088-4.084,0.394-6.115c0.11-0.731-0.072-1.502-0.064-2.255  c0.02-1.847,0.076-3.693,0.106-5.541c0.002-0.143-0.077-0.287-0.118-0.431c-0.072,0.115-0.154,0.226-0.214,0.347  c-1.126,2.267-1.987,4.614-2.484,7.112c-0.65,3.268-2.135,6.308-2.71,9.607c-0.327,1.879-1.187,3.655-1.501,5.488  c-0.34,1.986-1.094,3.828-1.461,5.79c-0.493,2.628-1.208,3.122-3.921,3.06c-2.234-0.051-4.396-0.473-6.433-1.449  c-1.558-0.746-1.961-1.584-1.731-3.295c0.453-3.381,1.58-6.626,1.955-10.02c0.525-4.759,0.958-9.529,1.615-14.27  c0.757-5.46,1.654-10.903,2.602-16.335c1.299-7.444,2.476-14.918,4.377-22.241c0.942-3.628,2.042-7.214,3.388-10.729  c1.515-3.954,4.734-5.708,8.385-7.041c2.389-0.872,4.915-1.373,7.129-2.725c0.753-0.46,1.237-1.144,1.766-1.775  c1.564-1.868,3.717-2.391,5.947-2.78c3.905-0.682,7.816-1.094,11.781-0.495c0.972,0.147,1.575,0.819,2.301,1.308  c2.063,1.39,4.216,2.415,6.77,2.565c1.388,0.082,2.81,0.258,4.012,1.195c0.514,0.401,1.279,0.129,1.937,0.241  c2.914,0.495,5.144,1.886,6.638,4.456c2.32,3.991,4.008,8.261,5.427,12.63c2.703,8.325,4.921,16.791,6.455,25.403  c1.373,7.714,1.876,15.507,1.205,23.358c-0.349,4.081-0.718,8.153-1.599,12.152c-0.665,3.019-0.911,6.084-1.302,9.134  c-0.08,0.628-0.335,0.983-0.964,1.063c-3.56,0.455-7.039,0.124-10.426-1.076c-0.388-0.138-0.863-0.317-0.868-0.815  c-0.026-2.355-0.23-4.818,0.574-6.998c0.714-1.935,0.667-3.812,0.437-5.651c-0.24-1.918-0.886-3.753,0.035-5.649  c0.175-0.36-0.001-0.775-0.155-1.141c-1.32-3.124-1.578-6.445-1.84-9.771c-0.162-2.069-0.681-4.074-1.297-6.05  c-0.084-0.27-0.097-0.617-0.431-0.76c-0.06,0.301-0.148,0.6-0.174,0.903c-0.33,3.942-0.444,7.889-0.381,11.847  c0.044,2.713,0.086,5.438-0.474,8.122c-0.161,0.772-0.466,1.372-1.386,1.419c-0.463,0.023-0.644,0.262-0.589,0.789  c0.179,1.741-0.275,3.454-0.313,5.19c-0.012,0.546-0.52,0.676-0.941,0.833c-2.783,1.04-5.716,1.355-8.63,1.72  C55.614,89.419,51.471,89.544,47.166,89.425z"/>
</svg>