<?xml version="1.0" encoding="UTF-8" standalone="no"?>
<svg
   xmlns:dc="http://purl.org/dc/elements/1.1/"
   xmlns:cc="http://creativecommons.org/ns#"
   xmlns:rdf="http://www.w3.org/1999/02/22-rdf-syntax-ns#"
   xmlns:svg="http://www.w3.org/2000/svg"
   xmlns="http://www.w3.org/2000/svg"
   xmlns:sodipodi="http://sodipodi.sourceforge.net/DTD/sodipodi-0.dtd"
   xmlns:inkscape="http://www.inkscape.org/namespaces/inkscape"
   version="1.1"
   id="Layer_1"
   x="0px"
   y="0px"
   width="100px"
   height="100px"
   viewBox="5.0 -10.0 100.0 135.0"
   enable-background="new 0 0 100 100"
   xml:space="preserve"
   inkscape:version="0.48.4 r9939"
   sodipodi:docname="noun_62572_cc.svg"><metadata
     id="metadata13"><rdf:RDF><cc:Work
         rdf:about=""><dc:format>image/svg+xml</dc:format><dc:type
           rdf:resource="http://purl.org/dc/dcmitype/StillImage" /></cc:Work></rdf:RDF></metadata><defs
     id="defs11" /><sodipodi:namedview
     pagecolor="#ffffff"
     bordercolor="#666666"
     borderopacity="1"
     objecttolerance="10"
     gridtolerance="10"
     guidetolerance="10"
     inkscape:pageopacity="0"
     inkscape:pageshadow="2"
     inkscape:window-width="640"
     inkscape:window-height="480"
     id="namedview9"
     showgrid="false"
     inkscape:zoom="2.36"
     inkscape:cx="50"
     inkscape:cy="50"
     inkscape:window-x="65"
     inkscape:window-y="24"
     inkscape:window-maximized="0"
     inkscape:current-layer="Layer_1" /><path
     d="M83.787,58.854c0.919,0,3.525-0.615,3.525-3.219c0-2.607-5.977-7.509-5.977-11.34c0-3.831,0.918-3.984,1.685-4.751  c0.767-0.765-1.761-11.875-2.297-12.411C80.187,26.596,75,2.001,54.06,2.001c-12.563,0-41.526,1.387-41.373,27.438  c0.062,10.496,1.614,20.686,4.234,27.495c3.498,9.09-2.088,26.588-1.782,26.588C25.02,83.521,51.761,99,51.761,99  s13.638-16.396,26.508-16.396c8.429,0,4.6-10.268,4.6-10.268s1.074-3.062,2.144-3.062c1.073,0-0.458-2.912-1.533-2.912  c-1.07,0,2.761-3.832,1.075-3.832S82.868,58.854,83.787,58.854z M57.5,58.5c-3.59,0-6.5-2.91-6.5-6.5s2.91-6.5,6.5-6.5  S64,48.41,64,52S61.09,58.5,57.5,58.5z M67.5,66.25c-2.209,0-4-1.791-4-4s1.791-4,4-4s4,1.791,4,4S69.709,66.25,67.5,66.25z   M73.75,37c0,3.59-2.91,6.5-6.5,6.5c-2.212,0-4.163-1.107-5.337-2.795C60.711,41.216,59.389,41.5,58,41.5  c-0.588,0-1.16-0.061-1.721-0.158C54.456,43.282,51.873,44.5,49,44.5c-0.908,0-1.783-0.132-2.619-0.358  c-0.886,2.536-3.293,4.358-6.131,4.358c-3.01,0-5.535-2.049-6.274-4.826C32.757,44.203,31.414,44.5,30,44.5c-5.523,0-10-4.477-10-10  c0-1.884,0.53-3.639,1.436-5.144C20.392,28.203,19.75,26.678,19.75,25c0-2.518,1.434-4.696,3.526-5.775  c0.269-3.344,3.061-5.975,6.474-5.975c2.026,0,3.835,0.928,5.027,2.381C36.29,12.029,39.849,9.5,44,9.5  c3.565,0,6.686,1.871,8.456,4.679C54.043,13.12,55.948,12.5,58,12.5c5.523,0,10,4.477,10,10c0,0.345-0.018,0.687-0.052,1.022  C71.328,23.754,74,26.562,74,30c0,1.375-0.43,2.648-1.158,3.698C73.415,34.667,73.75,35.793,73.75,37z M77.5,68.25  c-1.381,0-2.5-1.119-2.5-2.5s1.119-2.5,2.5-2.5s2.5,1.119,2.5,2.5S78.881,68.25,77.5,68.25z"
     id="path3" /></svg>