<?xml version="1.0" encoding="UTF-8" standalone="no"?>
<svg
   xmlns:dc="http://purl.org/dc/elements/1.1/"
   xmlns:cc="http://creativecommons.org/ns#"
   xmlns:rdf="http://www.w3.org/1999/02/22-rdf-syntax-ns#"
   xmlns:svg="http://www.w3.org/2000/svg"
   xmlns="http://www.w3.org/2000/svg"
   xmlns:sodipodi="http://sodipodi.sourceforge.net/DTD/sodipodi-0.dtd"
   xmlns:inkscape="http://www.inkscape.org/namespaces/inkscape"
   version="1.1"
   id="Layer_1"
   x="0px"
   y="0px"
   width="100px"
   height="67.3267326733px"
   viewBox="0 0 101.046 68.012"
   enable-background="new 0 0 101.046 68.012"
   xml:space="preserve"
   inkscape:version="0.48.4 r9939"
   sodipodi:docname="noun_4023.svg"><metadata
     id="metadata9"><rdf:RDF><cc:Work
         rdf:about=""><dc:format>image/svg+xml</dc:format><dc:type
           rdf:resource="http://purl.org/dc/dcmitype/StillImage" /></cc:Work></rdf:RDF></metadata><defs
     id="defs7" /><sodipodi:namedview
     pagecolor="#ffffff"
     bordercolor="#666666"
     borderopacity="1"
     objecttolerance="10"
     gridtolerance="10"
     guidetolerance="10"
     inkscape:pageopacity="0"
     inkscape:pageshadow="2"
     inkscape:window-width="640"
     inkscape:window-height="480"
     id="namedview5"
     showgrid="false"
     inkscape:zoom="2.92"
     inkscape:cx="50"
     inkscape:cy="33.663368"
     inkscape:window-x="75"
     inkscape:window-y="34"
     inkscape:window-maximized="0"
     inkscape:current-layer="Layer_1" /><path
     stroke-miterlimit="10"
     d="m 88.604108,47.045041 h -1.194912 v -4.222447 c 0.03523,-0.323565 0.05472,-0.653264 0.05472,-0.986031 0,-3.87818 -2.422808,-7.176703 -5.802143,-8.403491 1.265377,-1.055804 2.074228,-2.662894 2.074228,-4.463205 0,-3.179678 -2.521009,-5.757464 -5.631226,-5.757464 -3.10797,0 -5.629729,2.57702 -5.629729,5.757464 0,2.010398 1.009754,3.779272 2.536751,4.809006 -0.232386,0.112711 -0.459524,0.236157 -0.677666,0.368803 l -8.588517,-8.783029 c 0.172415,-1.15548 -0.174664,-2.375366 -1.044986,-3.264786 -0.706901,-0.723805 -1.628198,-1.093375 -2.555491,-1.111776 v -2.994128 h 9.088525 V 9.1748923 H 62.145137 V 7.6490756 H 60.894752 V 9.1748923 H 51.68104 v 8.8182987 h 9.213712 v 3.190413 c -0.528489,0.180951 -1.024744,0.485347 -1.446037,0.915489 -1.450536,1.482879 -1.450536,3.888149 0,5.371027 0.421293,0.430143 0.917548,0.734539 1.446037,0.915491 v 15.008972 c -0.625191,-0.513717 -1.33959,-0.91779 -2.115457,-1.186149 0.470768,-0.679334 0.748131,-1.508182 0.748131,-2.404503 0,-2.300993 -1.823851,-4.166476 -4.073494,-4.166476 -1.478272,0 -2.771386,0.805079 -3.485034,2.010397 l -3.413069,-3.490976 c 0.08171,-0.542852 -0.08096,-1.116376 -0.489509,-1.533484 -0.34633,-0.354234 -0.802105,-0.527518 -1.257132,-0.521384 v -3.418902 h 4.868103 v -6.299552 h -4.868103 v -1.711367 h -0.326839 v 1.711367 h -4.868851 v 6.299552 h 4.868851 v 3.454939 c -0.32459,0.06747 -0.632688,0.228489 -0.883064,0.485347 -0.681415,0.696969 -0.681415,1.82638 0,2.524116 0.250376,0.256091 0.559224,0.417107 0.883064,0.485347 v 10.719818 c -0.877068,-2.063302 -2.491023,-3.720998 -4.501532,-4.628054 0.513497,-0.921623 0.807352,-1.985861 0.807352,-3.122172 0,-3.49021 -2.766138,-6.319488 -6.179208,-6.319488 -1.706159,0 -3.250399,0.707703 -4.368848,1.850915 l -5.116981,-5.233013 c 0.135684,-0.909356 -0.137182,-1.870084 -0.821594,-2.570885 -0.593708,-0.60726 -1.378572,-0.895556 -2.155939,-0.87102 v -3.727899 h 8.81266 v -8.350585 h -8.811911 v -1.564154 h -1.250384 v 1.564154 h -8.266928 v 8.351352 h 8.266178 v 4.056065 c -0.26237,0.138014 -0.508249,0.318965 -0.727891,0.54362 -1.141687,1.166981 -1.141687,3.060834 0,4.228582 0.219642,0.224655 0.465521,0.404839 0.727891,0.543619 v 15.942865 h -7.296906 c -0.517245,0 -0.936289,0.542853 -0.936289,1.212986 v 9.705418 c 0,0.670133 0.419044,1.213753 0.936289,1.213753 h 73.0058 c 0.516496,0 0.936289,-0.542853 0.936289,-1.213753 v -9.706952 c 0,-0.669366 -0.419043,-1.212986 -0.936289,-1.212986 z m -25.961966,-18.506082 8.588521,8.784562 c -0.762375,1.322629 -1.200908,2.86148 -1.202407,4.507676 h -0.05397 v 5.214612 H 63.235853 C 63.010964,46.201625 62.638397,45.420316 62.145889,44.732548 V 28.58113 c 0.165669,-0.003 0.331337,-0.0161 0.496256,-0.04217 z m -15.544346,7.109997 4.288639,4.386531 c 0.06372,1.176182 0.602703,2.220485 1.425048,2.938921 -1.406307,0.933125 -2.459539,2.3746 -2.912316,4.071401 H 46.809188 V 35.665825 c 0.0967,0.0015 0.194155,-0.0015 0.288608,-0.01687 z m -22.951448,-4.21708 c 0.178412,0.0054 0.356825,-0.0046 0.533738,-0.0322 l 5.864362,5.997454 c -0.07346,0.391039 -0.113194,0.794345 -0.113194,1.206086 0,1.887718 0.810351,3.581451 2.092969,4.739231 -1.060728,1.003665 -1.876326,2.271857 -2.350093,3.703364 H 24.147098 V 31.431876 z"
     id="path3"
     inkscape:connector-curvature="0"
     style="stroke:#000000;stroke-width:0.75813812;stroke-miterlimit:10" /></svg>